ply
format ascii 1.0
comment Created by Open Asset Import Library - http://assimp.sf.net (v3.1.187496374)
element vertex 24
property float x
property float y
property float z
property float nx
property float ny
property float nz
element face 12
property list uint uint vertex_index
end_header
-10 20 0 0 0 -1
20 20 0 0 0 -1
-10 -20 0 0 0 -1
20 -20 0 0 0 -1
20 -20 10 0 -1 0
-10 -20 10 0 -1 0
20 -20 0 0 -1 0
-10 -20 0 0 -1 0
20 20 10 1 0 0
20 -20 10 1 0 0
20 20 0 1 0 0
20 -20 0 1 0 0
-10 20 10 0 1 0
20 20 10 0 1 0
-10 20 0 0 1 0
20 20 0 0 1 0
20 20 10 0 0 1
-10 20 10 0 0 1
20 -20 10 0 0 1
-10 -20 10 0 0 1
-10 -20 10 -1 -4.33681e-17 0
-10 20 10 -1 -4.33681e-17 0
-10 -20 0 -1 -4.33681e-17 0
-10 20 0 -1 -4.33681e-17 0
3 0 1 2
3 2 1 3
3 4 5 6
3 6 5 7
3 8 9 10
3 10 9 11
3 12 13 14
3 14 13 15
3 16 17 18
3 18 17 19
3 20 21 22
3 22 21 23
