ply
format ascii 1.0
comment VCGLIB generated
element vertex 416
property float x
property float y
property float z
element face 836
property list uchar int vertex_indices
end_header
2.8977999687194824 0.7764999866485596 9.5
2.8977999687194824 0.7764999866485596 -9.5
3 0 9.5
3 0 -9.5
-1.6822999715805054 -6.278500080108643 10
1.2246063538223773e-15 -6.5 10
1.2246063538223773e-15 -3.5 10
1.6822999715805054 -6.278500080108643 10
0.9058999419212341 -3.38070011138916 10
1.75 -3.031099796295166 10
3.25 -5.629199981689453 10
2.474900007247925 -2.474900007247925 10
4.596199989318848 -4.596199989318848 10
5.629199981689453 -3.25 10
3.031099796295166 -1.75 10
6.278500080108643 -1.6822999715805054 10
3.38070011138916 -0.9058999419212341 10
3.5 0 10
6.5 0 10
6.278500080108643 1.6822999715805054 10
3.38070011138916 0.9058999419212341 10
3.031099796295166 1.75 10
5.629199981689453 3.25 10
2.474900007247925 2.474900007247925 10
4.596199989318848 4.596199989318848 10
3.25 5.629199981689453 10
1.75 3.031099796295166 10
1.6822999715805054 6.278500080108643 10
0.9058999419212341 3.38070011138916 10
1.2246063538223773e-15 3.5 10
1.2246063538223773e-15 6.5 10
-1.6822999715805054 6.278500080108643 10
-0.9058999419212341 3.38070011138916 10
-1.75 3.031099796295166 10
-3.25 5.629199981689453 10
-2.474900007247925 2.474900007247925 10
-4.596199989318848 4.596199989318848 10
-5.629199981689453 3.25 10
-3.031099796295166 1.75 10
-6.278500080108643 1.6822999715805054 10
-3.38070011138916 0.9058999419212341 10
-3.5 0 10
-6.5 0 10
-6.278500080108643 -1.6822999715805054 10
-3.38070011138916 -0.9058999419212341 10
-3.031099796295166 -1.75 10
-5.629199981689453 -3.25 10
-2.474900007247925 -2.474900007247925 10
-4.596199989318848 -4.596199989318848 10
-3.25 -5.629199981689453 10
-1.75 -3.031099796295166 10
-0.9058999419212341 -3.38070011138916 10
2.562299966812134 -9.562700271606445 -10
0 -9.899999618530273 -10
0 -3.5 -10
-2.562299966812134 -9.562700271606445 -10
-0.9058999419212341 -3.38070011138916 -10
-1.75 -3.031099796295166 -10
-4.949999809265137 -8.573699951171875 -10
-2.474900007247925 -2.474900007247925 -10
-7.000400066375732 -7.000400066375732 -10
-8.573699951171875 -4.949999809265137 -10
-3.031099796295166 -1.75 -10
-9.562700271606445 -2.562299966812134 -10
-3.38070011138916 -0.9058999419212341 -10
-3.5 0 -10
-9.899999618530273 0 -10
-9.562700271606445 2.562299966812134 -10
-3.38070011138916 0.9058999419212341 -10
-3.031099796295166 1.75 -10
-8.573699951171875 4.949999809265137 -10
-2.474900007247925 2.474900007247925 -10
-7.000400066375732 7.000400066375732 -10
-4.949999809265137 8.573699951171875 -10
-1.75 3.031099796295166 -10
-2.562299966812134 9.562700271606445 -10
-0.9058999419212341 3.38070011138916 -10
0 3.5 -10
0 9.899999618530273 -10
2.562299966812134 9.562700271606445 -10
0.9058999419212341 3.38070011138916 -10
1.75 3.031099796295166 -10
4.949999809265137 8.573699951171875 -10
2.474900007247925 2.474900007247925 -10
7.000400066375732 7.000400066375732 -10
8.573699951171875 4.949999809265137 -10
3.031099796295166 1.75 -10
9.562700271606445 2.562299966812134 -10
3.38070011138916 0.9058999419212341 -10
3.5 0 -10
9.899999618530273 0 -10
9.562700271606445 -2.562299966812134 -10
3.38070011138916 -0.9058999419212341 -10
3.031099796295166 -1.75 -10
8.573699951171875 -4.949999809265137 -10
2.474900007247925 -2.474900007247925 -10
7.000400066375732 -7.000400066375732 -10
4.949999809265137 -8.573699951171875 -10
1.75 -3.031099796295166 -10
0.9058999419212341 -3.38070011138916 -10
7 0 9.5
7 0 0.49999985098838806
6.761500358581543 1.8117001056671143 9.5
6.761500358581543 1.8117001056671143 0.49999985098838806
9.659299850463867 2.5881998538970947 -9.899999618530273
10 0 -9.899999618530273
7.25 0 0.06700005382299423
7.5 0 -2.2351741790771484e-7
7.002999782562256 1.8763999938964844 0.06700005382299423
7.2444000244140625 1.941100001335144 -2.2351741790771484e-7
10 0 -0.1000000536441803
9.659299850463867 2.5881998538970947 -0.1000000536441803
7.066999912261963 0 0.2500002682209015
6.826200008392334 1.8291000127792358 0.2500002682209015
9.899999618530273 0 -2.2351741790771484e-7
9.562700271606445 2.562299966812134 -2.2351741790771484e-7
6.278700351715088 3.625 0.06700005382299423
6.495200157165527 3.75 -2.2351741790771484e-7
8.660299301147461 5 -9.899999618530273
8.660299301147461 5 -0.1000000536441803
2.598100185394287 1.5 9.5
2.598100185394287 1.5 -9.5
6.062199592590332 3.5 9.5
6.062199592590332 3.5 0.49999985098838806
3.75 -6.495200157165527 -2.2351741790771484e-7
1.941100001335144 -7.2444000244140625 -2.2351741790771484e-7
2.562299966812134 -9.562700271606445 -2.2351741790771484e-7
6.123031769111886e-16 -7.5 -2.2351741790771484e-7
6.123031769111886e-16 -9.899999618530273 -2.2351741790771484e-7
-2.562299966812134 -9.562700271606445 -2.2351741790771484e-7
-1.941100001335144 -7.2444000244140625 -2.2351741790771484e-7
-3.75 -6.495200157165527 -2.2351741790771484e-7
-4.949999809265137 -8.573699951171875 -2.2351741790771484e-7
-7.000400066375732 -7.000400066375732 -2.2351741790771484e-7
-5.303299903869629 -5.303299903869629 -2.2351741790771484e-7
-6.495200157165527 -3.75 -2.2351741790771484e-7
-8.573699951171875 -4.949999809265137 -2.2351741790771484e-7
-9.562700271606445 -2.562299966812134 -2.2351741790771484e-7
-7.2444000244140625 -1.941100001335144 -2.2351741790771484e-7
-7.5 0 -2.2351741790771484e-7
-9.899999618530273 0 -2.2351741790771484e-7
-9.562700271606445 2.562299966812134 -2.2351741790771484e-7
-7.2444000244140625 1.941100001335144 -2.2351741790771484e-7
-6.495200157165527 3.75 -2.2351741790771484e-7
-8.573699951171875 4.949999809265137 -2.2351741790771484e-7
-7.000400066375732 7.000400066375732 -2.2351741790771484e-7
-5.303299903869629 5.303299903869629 -2.2351741790771484e-7
-3.75 6.495200157165527 -2.2351741790771484e-7
-4.949999809265137 8.573699951171875 -2.2351741790771484e-7
-2.562299966812134 9.562700271606445 -2.2351741790771484e-7
-1.941100001335144 7.2444000244140625 -2.2351741790771484e-7
6.123031769111886e-16 7.5 -2.2351741790771484e-7
6.123031769111886e-16 9.899999618530273 -2.2351741790771484e-7
2.562299966812134 9.562700271606445 -2.2351741790771484e-7
1.941100001335144 7.2444000244140625 -2.2351741790771484e-7
3.75 6.495200157165527 -2.2351741790771484e-7
4.949999809265137 8.573699951171875 -2.2351741790771484e-7
7.000400066375732 7.000400066375732 -2.2351741790771484e-7
5.303299903869629 5.303299903869629 -2.2351741790771484e-7
8.573699951171875 4.949999809265137 -2.2351741790771484e-7
9.562700271606445 -2.562299966812134 -2.2351741790771484e-7
7.2444000244140625 -1.941100001335144 -2.2351741790771484e-7
6.495200157165527 -3.75 -2.2351741790771484e-7
8.573699951171875 -4.949999809265137 -2.2351741790771484e-7
7.000400066375732 -7.000400066375732 -2.2351741790771484e-7
5.303299903869629 -5.303299903869629 -2.2351741790771484e-7
4.949999809265137 -8.573699951171875 -2.2351741790771484e-7
6.120199680328369 3.5334999561309814 0.2500002682209015
2.121299982070923 2.121299982070923 -9.5
2.121299982070923 2.121299982070923 9.5
5.126500129699707 5.126500129699707 0.06700005382299423
7.071100234985352 7.071100234985352 -0.1000000536441803
7.071100234985352 7.071100234985352 -9.899999618530273
4.949699878692627 4.949699878692627 9.5
4.949699878692627 4.949699878692627 0.49999985098838806
4.997100353240967 4.997100353240967 0.2500002682209015
3.625 6.278700351715088 0.06700005382299423
5 8.660299301147461 -9.899999618530273
5 8.660299301147461 -0.1000000536441803
1.5 2.598100185394287 -9.5
3.5 6.062199592590332 9.5
3.5 6.062199592590332 0.49999985098838806
1.5 2.598100185394287 9.5
1.5 2.598100185394287 5.578299522399902
1.5658000707626343 2.547600030899048 5.41949987411499
1.621000051498413 2.505199909210205 4.999999523162842
1.5658000707626343 2.547600030899048 4.58050012588501
1.5 2.598100185394287 4.421699523925781
1.5658000707626343 6.620999813079834 4.58050012588501
1.621000051498413 6.620999813079834 4.999999523162842
1.4038000106811523 2.637899875640869 4.189500331878662
1.4038000106811523 6.620999813079834 4.189500331878662
1.5658000707626343 6.620999813079834 5.41949987411499
3.5334999561309814 6.120199680328369 0.2500002682209015
1.4038000106811523 2.637899875640869 5.810500621795654
1.4038000106811523 6.620999813079834 5.810500621795654
0.7764999866485596 2.8977999687194824 -9.5
2.5881998538970947 9.659299850463867 -9.899999618530273
2.5881998538970947 9.659299850463867 -0.1000000536441803
1.1461999416351318 2.7446000576019287 3.85379958152771
0.8105000257492065 2.883699893951416 3.596200466156006
0.7764999866485596 2.8977999687194824 3.5821001529693604
0.7764999866485596 2.8977999687194824 9.5
1.8117001056671143 6.761500358581543 9.5
1.8117001056671143 6.761500358581543 0.49999985098838806
0.7764999866485596 2.8977999687194824 6.417900085449219
0.8105000257492065 2.883699893951416 6.403800010681152
1.1461999416351318 2.7446000576019287 6.146199703216553
1.8763999938964844 7.002999782562256 0.06700005382299423
0.4194999933242798 6.620999813079834 3.434199571609497
0.4194999933242798 2.9448001384735107 3.434199571609497
0.8105000257492065 6.620999813079834 3.596200466156006
1.1461999416351318 6.620999813079834 3.85379958152771
1.1461999416351318 6.620999813079834 6.146199703216553
1.8291000127792358 6.826200008392334 0.2500002682209015
0.8105000257492065 6.620999813079834 6.403800010681152
0.4194999933242798 2.9448001384735107 6.565799713134766
0.4194999933242798 6.620999813079834 6.565799713134766
6.061801345541649e-16 10 -0.1000000536441803
6.123031603675764e-18 10 -9.899999618530273
3.061515884555943e-17 3 -9.5
8.192004504591489e-16 3 3.379000186920166
6.164056221725372e-16 7.25 0.06700005382299423
1.1939911949768178e-15 3 9.5
1.0177090273348578e-15 3 6.620999336242676
1.1939911949768178e-15 7 9.5
1.7138999700546265 6.774399757385254 4.540800094604492
1.767300009727478 6.767300128936768 4.999999523162842
7.959941299845452e-16 7 3.000000238418579
0.5006000399589539 6.9340996742248535 3.1318001747131348
6.429183357567481e-16 7 0.49999985098838806
0.9381999969482422 6.876499652862549 3.3749003410339355
1.2937999963760376 6.829699993133545 3.706199884414673
1.5547999143600464 6.795300006866455 4.102299690246582
1.7138999700546265 6.774399757385254 5.459200382232666
1.5547999143600464 6.795300006866455 5.897700786590576
1.2937999963760376 6.829699993133545 6.29379940032959
0.9381999969482422 6.876499652862549 6.625100612640381
0.5006000399589539 6.9340996742248535 6.868200302124023
1.040915506628139e-15 7 7.000000953674316
1.0177090273348578e-15 6.620999813079834 6.620999336242676
8.192004504591489e-16 6.620999813079834 3.379000186920166
6.276107563339683e-16 7.066999912261963 0.2500002682209015
-1.8763999938964844 7.002999782562256 0.06700005382299423
-2.5881998538970947 9.659299850463867 -0.1000000536441803
-2.5881998538970947 9.659299850463867 -9.899999618530273
-0.7764999866485596 2.8977999687194824 -9.5
-0.7764999866485596 2.8977999687194824 6.417900085449219
-0.4194999933242798 2.9448001384735107 6.565799713134766
-0.7764999866485596 2.8977999687194824 9.5
-0.4194999933242798 2.9448001384735107 3.434199571609497
-0.7764999866485596 2.8977999687194824 3.5821001529693604
-1.8117001056671143 6.761500358581543 9.5
-0.5006000399589539 6.9340996742248535 6.868200302124023
-0.9381999969482422 6.876499652862549 6.625100612640381
-1.2937999963760376 6.829699993133545 6.29379940032959
-1.5547999143600464 6.795300006866455 5.897700786590576
-1.7138999700546265 6.774399757385254 5.459200382232666
-1.767300009727478 6.767300128936768 4.999999523162842
-1.8117001056671143 6.761500358581543 0.49999985098838806
-1.7138999700546265 6.774399757385254 4.540800094604492
-1.5547999143600464 6.795300006866455 4.102299690246582
-1.2937999963760376 6.829699993133545 3.706199884414673
-0.9381999969482422 6.876499652862549 3.3749003410339355
-0.5006000399589539 6.9340996742248535 3.1318001747131348
-0.4194999933242798 6.620999813079834 3.434199571609497
-0.8105000257492065 6.620999813079834 3.596200466156006
-0.8105000257492065 2.883699893951416 3.596200466156006
-1.1461999416351318 2.7446000576019287 3.85379958152771
-1.1461999416351318 6.620999813079834 3.85379958152771
-1.5658000707626343 2.547600030899048 4.58050012588501
-1.5 2.598100185394287 4.421699523925781
-1.5658000707626343 6.620999813079834 4.58050012588501
-1.4038000106811523 2.637899875640869 4.189500331878662
-1.4038000106811523 6.620999813079834 4.189500331878662
-1.5658000707626343 6.620999813079834 5.41949987411499
-1.621000051498413 6.620999813079834 4.999999523162842
-1.621000051498413 2.505199909210205 4.999999523162842
-1.5658000707626343 2.547600030899048 5.41949987411499
-1.4038000106811523 6.620999813079834 5.810500621795654
-1.4038000106811523 2.637899875640869 5.810500621795654
-1.5 2.598100185394287 5.578299522399902
-1.1461999416351318 2.7446000576019287 6.146199703216553
-1.1461999416351318 6.620999813079834 6.146199703216553
-0.8105000257492065 2.883699893951416 6.403800010681152
-0.8105000257492065 6.620999813079834 6.403800010681152
-0.4194999933242798 6.620999813079834 6.565799713134766
-1.8291000127792358 6.826200008392334 0.2500002682209015
-5 8.660299301147461 -9.899999618530273
-5 8.660299301147461 -0.1000000536441803
-3.625 6.278700351715088 0.06700005382299423
-1.5 2.598100185394287 -9.5
-3.5 6.062199592590332 0.49999985098838806
-3.5 6.062199592590332 9.5
-1.5 2.598100185394287 9.5
-3.5334999561309814 6.120199680328369 0.2500002682209015
-5.126500129699707 5.126500129699707 0.06700005382299423
-7.071100234985352 7.071100234985352 -0.1000000536441803
-7.071100234985352 7.071100234985352 -9.899999618530273
-2.121299982070923 2.121299982070923 -9.5
-4.949699878692627 4.949699878692627 9.5
-4.949699878692627 4.949699878692627 0.49999985098838806
-2.121299982070923 2.121299982070923 9.5
-4.997100353240967 4.997100353240967 0.2500002682209015
-2.598100185394287 1.5 -9.5
-2.598100185394287 1.5 9.5
-6.278700351715088 3.625 0.06700005382299423
-8.660299301147461 5 -9.899999618530273
-8.660299301147461 5 -0.1000000536441803
-6.120199680328369 3.5334999561309814 0.2500002682209015
-6.062199592590332 3.5 0.49999985098838806
-6.062199592590332 3.5 9.5
-7.002999782562256 1.8763999938964844 0.06700005382299423
-9.659299850463867 2.5881998538970947 -0.1000000536441803
-9.659299850463867 2.5881998538970947 -9.899999618530273
-2.8977999687194824 0.7764999866485596 -9.5
-2.8977999687194824 0.7764999866485596 9.5
-6.761500358581543 1.8117001056671143 9.5
-6.761500358581543 1.8117001056671143 0.49999985098838806
-6.826200008392334 1.8291000127792358 0.2500002682209015
-7.25 0 0.06700005382299423
-10 0 -9.899999618530273
-10 0 -0.1000000536441803
-3 0 -9.5
-3 0 9.5
-7 0 9.5
-7.066999912261963 0 0.2500002682209015
-7 0 0.49999985098838806
-7.002999782562256 -1.8763999938964844 0.06700005382299423
-9.659299850463867 -2.5881998538970947 -0.1000000536441803
-9.659299850463867 -2.5881998538970947 -9.899999618530273
-2.8977999687194824 -0.7764999866485596 9.5
-2.8977999687194824 -0.7764999866485596 -9.5
-6.826200008392334 -1.8291000127792358 0.2500002682209015
-6.761500358581543 -1.8117001056671143 9.5
-6.761500358581543 -1.8117001056671143 0.49999985098838806
-6.278700351715088 -3.625 0.06700005382299423
-8.660299301147461 -5 -9.899999618530273
-8.660299301147461 -5 -0.1000000536441803
-2.598100185394287 -1.5 9.5
-2.598100185394287 -1.5 -9.5
-6.062199592590332 -3.5 9.5
-6.062199592590332 -3.5 0.49999985098838806
-6.120199680328369 -3.5334999561309814 0.2500002682209015
-5.126500129699707 -5.126500129699707 0.06700005382299423
-7.071100234985352 -7.071100234985352 -0.1000000536441803
-7.071100234985352 -7.071100234985352 -9.899999618530273
-2.121299982070923 -2.121299982070923 -9.5
-2.121299982070923 -2.121299982070923 9.5
-4.949699878692627 -4.949699878692627 9.5
-4.949699878692627 -4.949699878692627 0.49999985098838806
-4.997100353240967 -4.997100353240967 0.2500002682209015
-3.625 -6.278700351715088 0.06700005382299423
-5 -8.660299301147461 -0.1000000536441803
-5 -8.660299301147461 -9.899999618530273
-1.5 -2.598100185394287 -9.5
-1.5 -2.598100185394287 9.5
-3.5 -6.062199592590332 9.5
-3.5 -6.062199592590332 0.49999985098838806
-3.5334999561309814 -6.120199680328369 0.2500002682209015
-1.8763999938964844 -7.002999782562256 0.06700005382299423
-2.5881998538970947 -9.659299850463867 -0.1000000536441803
-2.5881998538970947 -9.659299850463867 -9.899999618530273
-0.7764999866485596 -2.8977999687194824 -9.5
-0.7764999866485596 -2.8977999687194824 9.5
-1.8117001056671143 -6.761500358581543 0.49999985098838806
-1.8117001056671143 -6.761500358581543 9.5
-1.8291000127792358 -6.826200008392334 0.2500002682209015
6.164056221725372e-16 -7.25 0.06700005382299423
6.123031603675764e-18 -10 -9.899999618530273
6.061801345541649e-16 -10 -0.1000000536441803
3.061515884555943e-17 -3 -9.5
1.1939911949768178e-15 -3 9.5
6.429183357567481e-16 -7 0.49999985098838806
1.1939911949768178e-15 -7 9.5
6.276107563339683e-16 -7.066999912261963 0.2500002682209015
1.8763999938964844 -7.002999782562256 0.06700005382299423
0.7764999866485596 -2.8977999687194824 9.5
0.7764999866485596 -2.8977999687194824 -9.5
2.5881998538970947 -9.659299850463867 -0.1000000536441803
2.5881998538970947 -9.659299850463867 -9.899999618530273
1.8117001056671143 -6.761500358581543 0.49999985098838806
1.8117001056671143 -6.761500358581543 9.5
1.8291000127792358 -6.826200008392334 0.2500002682209015
3.625 -6.278700351715088 0.06700005382299423
5 -8.660299301147461 -9.899999618530273
5 -8.660299301147461 -0.1000000536441803
1.5 -2.598100185394287 9.5
1.5 -2.598100185394287 -9.5
3.5 -6.062199592590332 0.49999985098838806
3.5 -6.062199592590332 9.5
3.5334999561309814 -6.120199680328369 0.2500002682209015
5.126500129699707 -5.126500129699707 0.06700005382299423
7.071100234985352 -7.071100234985352 -9.899999618530273
7.071100234985352 -7.071100234985352 -0.1000000536441803
2.121299982070923 -2.121299982070923 9.5
2.121299982070923 -2.121299982070923 -9.5
4.949699878692627 -4.949699878692627 9.5
4.949699878692627 -4.949699878692627 0.49999985098838806
4.997100353240967 -4.997100353240967 0.2500002682209015
6.278700351715088 -3.625 0.06700005382299423
8.660299301147461 -5 -0.1000000536441803
8.660299301147461 -5 -9.899999618530273
2.598100185394287 -1.5 -9.5
2.598100185394287 -1.5 9.5
6.062199592590332 -3.5 9.5
6.062199592590332 -3.5 0.49999985098838806
6.120199680328369 -3.5334999561309814 0.2500002682209015
7.002999782562256 -1.8763999938964844 0.06700005382299423
9.659299850463867 -2.5881998538970947 -0.1000000536441803
9.659299850463867 -2.5881998538970947 -9.899999618530273
2.8977999687194824 -0.7764999866485596 -9.5
2.8977999687194824 -0.7764999866485596 9.5
6.761500358581543 -1.8117001056671143 9.5
6.761500358581543 -1.8117001056671143 0.49999985098838806
6.826200008392334 -1.8291000127792358 0.2500002682209015
3 0 1 2
3 2 1 3
3 4 5 6
3 6 5 7
3 6 7 8
3 8 7 9
3 7 10 9
3 9 10 11
3 10 12 11
3 11 12 13
3 11 13 14
3 14 13 15
3 14 15 16
3 16 15 17
3 15 18 17
3 17 18 19
3 17 19 20
3 20 19 21
3 19 22 21
3 21 22 23
3 22 24 23
3 23 24 25
3 23 25 26
3 26 25 27
3 26 27 28
3 28 27 29
3 27 30 29
3 29 30 31
3 29 31 32
3 32 31 33
3 31 34 33
3 33 34 35
3 34 36 35
3 35 36 37
3 35 37 38
3 38 37 39
3 38 39 40
3 40 39 41
3 39 42 41
3 41 42 43
3 41 43 44
3 44 43 45
3 43 46 45
3 45 46 47
3 46 48 47
3 47 48 49
3 47 49 50
3 50 49 4
3 50 4 51
3 51 4 6
3 52 53 54
3 54 53 55
3 54 55 56
3 56 55 57
3 55 58 57
3 57 58 59
3 58 60 59
3 59 60 61
3 59 61 62
3 62 61 63
3 62 63 64
3 64 63 65
3 63 66 65
3 65 66 67
3 65 67 68
3 68 67 69
3 67 70 69
3 69 70 71
3 70 72 71
3 71 72 73
3 71 73 74
3 74 73 75
3 74 75 76
3 76 75 77
3 75 78 77
3 77 78 79
3 77 79 80
3 80 79 81
3 79 82 81
3 81 82 83
3 82 84 83
3 83 84 85
3 83 85 86
3 86 85 87
3 86 87 88
3 88 87 89
3 87 90 89
3 89 90 91
3 89 91 92
3 92 91 93
3 91 94 93
3 93 94 95
3 94 96 95
3 95 96 97
3 95 97 98
3 98 97 52
3 98 52 99
3 99 52 54
3 3 1 89
3 89 1 88
3 100 101 102
3 102 101 103
3 104 105 87
3 87 105 90
3 106 107 108
3 108 107 109
3 110 105 111
3 111 105 104
3 100 102 18
3 18 102 19
3 2 17 0
3 0 17 20
3 106 108 112
3 112 108 113
3 114 110 115
3 115 110 111
3 101 112 103
3 103 112 113
3 108 109 116
3 116 109 117
3 118 119 104
3 104 119 111
3 120 121 0
3 0 121 1
3 1 121 88
3 88 121 86
3 118 104 85
3 85 104 87
3 102 103 122
3 122 103 123
3 0 20 120
3 120 20 21
3 124 125 126
3 126 125 127
3 126 127 128
3 128 127 129
3 127 130 129
3 129 130 131
3 129 131 132
3 132 131 133
3 131 134 133
3 133 134 135
3 133 135 136
3 136 135 137
3 135 138 137
3 137 138 139
3 137 139 140
3 140 139 141
3 139 142 141
3 141 142 143
3 141 143 144
3 144 143 145
3 143 146 145
3 145 146 147
3 145 147 148
3 148 147 149
3 147 150 149
3 149 150 151
3 149 151 152
3 152 151 153
3 151 154 153
3 153 154 155
3 153 155 156
3 156 155 157
3 155 158 157
3 157 158 117
3 157 117 159
3 159 117 115
3 117 109 115
3 115 109 107
3 115 107 114
3 114 107 160
3 107 161 160
3 160 161 162
3 160 162 163
3 163 162 164
3 162 165 164
3 164 165 124
3 164 124 166
3 166 124 126
3 19 102 22
3 22 102 122
3 108 116 113
3 113 116 167
3 115 111 159
3 159 111 119
3 121 120 168
3 168 120 169
3 117 158 116
3 116 158 170
3 119 118 171
3 171 118 172
3 103 113 123
3 123 113 167
3 86 121 83
3 83 121 168
3 172 118 84
3 84 118 85
3 122 123 173
3 173 123 174
3 122 173 22
3 22 173 24
3 169 120 23
3 23 120 21
3 116 170 167
3 167 170 175
3 159 119 157
3 157 119 171
3 123 167 174
3 174 167 175
3 170 158 176
3 176 158 155
3 177 178 172
3 172 178 171
3 168 179 83
3 83 179 81
3 172 84 177
3 177 84 82
3 173 174 180
3 180 174 181
3 24 173 25
3 25 173 180
3 169 23 182
3 182 23 26
3 182 183 169
3 169 183 184
3 169 184 185
3 169 185 168
3 168 185 186
3 168 186 187
3 187 179 168
3 188 186 189
3 189 186 185
3 186 188 187
3 187 188 190
3 188 191 190
3 171 178 157
3 157 178 156
3 192 189 184
3 184 189 185
3 175 170 193
3 193 170 176
3 175 193 174
3 174 193 181
3 184 183 192
3 192 183 194
3 192 194 195
3 81 179 80
3 80 179 196
3 177 82 197
3 197 82 79
3 177 197 178
3 178 197 198
3 187 190 179
3 179 190 199
3 179 199 200
3 200 201 179
3 179 201 196
3 26 28 182
3 182 28 202
3 203 180 204
3 204 180 181
3 202 205 182
3 182 205 206
3 182 206 207
3 207 194 182
3 182 194 183
3 155 154 176
3 176 154 208
3 209 210 211
3 211 210 201
3 211 201 200
3 190 191 199
3 199 191 212
3 211 200 212
3 212 200 199
3 194 207 195
3 195 207 213
3 27 25 203
3 203 25 180
3 178 198 156
3 156 198 153
3 193 176 214
3 214 176 208
3 206 205 215
3 215 205 216
3 215 216 217
3 218 198 219
3 219 198 197
3 215 213 206
3 206 213 207
3 80 196 77
3 77 196 220
3 197 79 219
3 219 79 78
3 193 214 181
3 181 214 204
3 201 210 196
3 196 210 221
3 196 221 220
3 154 151 208
3 208 151 222
3 223 224 202
3 202 224 216
3 202 216 205
3 28 29 202
3 202 29 223
3 225 30 203
3 203 30 27
3 226 188 227
3 227 188 189
3 228 229 230
3 230 229 204
3 229 231 204
3 204 231 232
3 204 232 233
3 233 226 204
3 204 226 227
3 204 227 203
3 203 227 234
3 203 234 235
3 235 236 203
3 203 236 237
3 203 237 238
3 239 225 238
3 238 225 203
3 229 209 231
3 231 209 211
3 232 212 233
3 233 212 191
3 231 211 232
3 232 211 212
3 233 191 226
3 226 191 188
3 217 240 238
3 238 240 239
3 228 241 229
3 229 241 209
3 240 217 224
3 224 217 216
3 210 209 221
3 221 209 241
3 215 217 237
3 237 217 238
3 213 215 236
3 236 215 237
3 195 213 235
3 235 213 236
3 235 234 195
3 195 234 192
3 234 227 192
3 192 227 189
3 214 208 242
3 242 208 222
3 152 153 218
3 218 153 198
3 230 204 242
3 242 204 214
3 222 151 243
3 243 151 150
3 244 218 245
3 245 218 219
3 220 246 77
3 77 246 76
3 245 219 75
3 75 219 78
3 247 248 249
3 249 248 224
3 249 224 223
3 220 221 246
3 246 221 250
3 246 250 251
3 225 252 30
3 30 252 31
3 32 249 29
3 29 249 223
3 225 253 252
3 252 253 254
3 252 254 255
3 225 239 253
3 255 256 252
3 252 256 257
3 252 257 258
3 252 258 259
3 259 258 260
3 259 260 261
3 261 262 259
3 259 262 263
3 259 263 264
3 228 230 264
3 264 230 259
3 241 265 221
3 221 265 250
3 266 265 263
3 263 265 264
3 267 251 266
3 266 251 250
3 266 250 265
3 265 241 264
3 264 241 228
3 268 267 269
3 269 267 266
3 270 271 272
3 272 271 273
3 272 273 274
3 273 268 274
3 274 268 269
3 274 269 261
3 261 269 262
3 269 266 262
3 262 266 263
3 272 274 260
3 260 274 261
3 257 275 258
3 258 275 276
3 276 272 258
3 258 272 260
3 277 276 278
3 278 276 275
3 277 270 276
3 276 270 272
3 279 280 275
3 275 280 281
3 275 281 278
3 256 279 257
3 257 279 275
3 280 279 282
3 282 279 283
3 255 283 256
3 256 283 279
3 282 283 284
3 284 283 285
3 248 286 224
3 224 286 240
3 286 248 285
3 285 248 247
3 285 247 284
3 285 254 286
3 286 254 253
3 286 253 240
3 240 253 239
3 254 285 255
3 255 285 283
3 222 243 242
3 242 243 287
3 245 288 244
3 244 288 289
3 75 73 245
3 245 73 288
3 243 150 290
3 290 150 147
3 246 291 76
3 76 291 74
3 246 251 291
3 291 251 267
3 291 267 268
3 268 273 291
3 291 273 271
3 230 242 259
3 259 242 287
3 259 292 252
3 252 292 293
3 281 280 294
3 294 280 282
3 294 282 284
3 284 247 294
3 294 247 249
3 152 218 149
3 149 218 244
3 149 244 148
3 148 244 289
3 293 34 252
3 252 34 31
3 243 290 287
3 287 290 295
3 259 287 292
3 292 287 295
3 249 32 294
3 294 32 33
3 296 290 146
3 146 290 147
3 289 288 297
3 297 288 298
3 74 291 71
3 71 291 299
3 298 288 72
3 72 288 73
3 293 292 300
3 300 292 301
3 302 294 35
3 35 294 33
3 36 34 300
3 300 34 293
3 291 271 299
3 299 271 270
3 299 270 277
3 299 277 302
3 302 277 278
3 302 278 281
3 281 294 302
3 290 296 295
3 295 296 303
3 148 289 145
3 145 289 297
3 299 302 304
3 304 302 305
3 296 146 306
3 306 146 143
3 307 308 298
3 298 308 297
3 299 304 71
3 71 304 69
3 292 295 301
3 301 295 303
3 70 307 72
3 72 307 298
3 297 308 145
3 145 308 144
3 303 309 301
3 301 309 310
3 302 35 305
3 305 35 38
3 300 301 311
3 311 301 310
3 303 296 309
3 309 296 306
3 311 37 300
3 300 37 36
3 312 306 142
3 142 306 143
3 308 307 313
3 313 307 314
3 304 305 315
3 315 305 316
3 69 304 68
3 68 304 315
3 307 70 314
3 314 70 67
3 311 310 317
3 317 310 318
3 39 37 317
3 317 37 311
3 38 40 305
3 305 40 316
3 309 306 319
3 319 306 312
3 308 313 144
3 144 313 141
3 309 319 310
3 310 319 318
3 320 312 139
3 139 312 142
3 321 322 314
3 314 322 313
3 315 316 323
3 323 316 324
3 323 65 315
3 315 65 68
3 314 67 321
3 321 67 66
3 313 322 141
3 141 322 140
3 324 316 41
3 41 316 40
3 325 42 317
3 317 42 39
3 319 312 326
3 326 312 320
3 317 318 325
3 325 318 327
3 319 326 318
3 318 326 327
3 320 139 328
3 328 139 138
3 322 321 329
3 329 321 330
3 331 332 324
3 324 332 323
3 323 332 65
3 65 332 64
3 330 321 63
3 63 321 66
3 320 328 326
3 326 328 333
3 140 322 137
3 137 322 329
3 43 42 334
3 334 42 325
3 324 41 331
3 331 41 44
3 325 327 334
3 334 327 335
3 327 326 335
3 335 326 333
3 328 138 336
3 336 138 135
3 337 338 330
3 330 338 329
3 339 340 331
3 331 340 332
3 332 340 64
3 64 340 62
3 337 330 61
3 61 330 63
3 334 335 341
3 341 335 342
3 331 44 339
3 339 44 45
3 341 46 334
3 334 46 43
3 328 336 333
3 333 336 343
3 137 329 136
3 136 329 338
3 335 333 342
3 342 333 343
3 344 336 134
3 134 336 135
3 338 337 345
3 345 337 346
3 340 339 347
3 347 339 348
3 62 340 59
3 59 340 347
3 346 337 60
3 60 337 61
3 341 342 349
3 349 342 350
3 348 339 47
3 47 339 45
3 341 349 46
3 46 349 48
3 336 344 343
3 343 344 351
3 136 338 133
3 133 338 345
3 342 343 350
3 350 343 351
3 344 134 352
3 352 134 131
3 345 346 353
3 353 346 354
3 347 348 355
3 355 348 356
3 347 355 59
3 59 355 57
3 346 60 354
3 354 60 58
3 349 350 357
3 357 350 358
3 48 349 49
3 49 349 357
3 50 356 47
3 47 356 348
3 351 344 359
3 359 344 352
3 345 353 133
3 133 353 132
3 351 359 350
3 350 359 358
3 360 352 130
3 130 352 131
3 361 353 362
3 362 353 354
3 363 355 364
3 364 355 356
3 57 355 56
3 56 355 363
3 354 58 362
3 362 58 55
3 358 365 357
3 357 365 366
3 364 356 51
3 51 356 50
3 4 49 366
3 366 49 357
3 359 352 367
3 367 352 360
3 353 361 132
3 132 361 129
3 359 367 358
3 358 367 365
3 368 360 127
3 127 360 130
3 362 369 361
3 361 369 370
3 371 363 372
3 372 363 364
3 56 363 54
3 54 363 371
3 362 55 369
3 369 55 53
3 365 373 366
3 366 373 374
3 367 375 365
3 365 375 373
3 125 376 127
3 127 376 368
3 367 360 375
3 375 360 368
3 361 370 129
3 129 370 128
3 372 377 371
3 371 377 378
3 372 364 6
3 6 364 51
3 379 370 380
3 380 370 369
3 371 378 54
3 54 378 99
3 4 366 5
3 5 366 374
3 380 369 52
3 52 369 53
3 373 381 374
3 374 381 382
3 7 5 382
3 382 5 374
3 8 377 6
3 6 377 372
3 368 376 375
3 375 376 383
3 128 370 126
3 126 370 379
3 373 375 381
3 381 375 383
3 124 384 125
3 125 384 376
3 380 385 379
3 379 385 386
3 377 387 378
3 378 387 388
3 378 388 99
3 99 388 98
3 52 97 380
3 380 97 385
3 381 389 382
3 382 389 390
3 377 8 387
3 387 8 9
3 390 10 382
3 382 10 7
3 376 384 383
3 383 384 391
3 126 379 166
3 166 379 386
3 381 383 389
3 389 383 391
3 124 165 384
3 384 165 392
3 393 394 385
3 385 394 386
3 395 396 387
3 387 396 388
3 98 388 95
3 95 388 396
3 393 385 96
3 96 385 97
3 390 389 397
3 397 389 398
3 390 397 10
3 10 397 12
3 395 387 11
3 11 387 9
3 384 392 391
3 391 392 399
3 166 386 164
3 164 386 394
3 389 391 398
3 398 391 399
3 392 165 400
3 400 165 162
3 394 393 401
3 401 393 402
3 396 395 403
3 403 395 404
3 396 403 95
3 95 403 93
3 94 402 96
3 96 402 393
3 397 398 405
3 405 398 406
3 395 11 404
3 404 11 14
3 405 13 397
3 397 13 12
3 399 392 407
3 407 392 400
3 394 401 164
3 164 401 163
3 399 407 398
3 398 407 406
3 162 161 400
3 400 161 408
3 401 402 409
3 409 402 410
3 403 404 411
3 411 404 412
3 93 403 92
3 92 403 411
3 402 94 410
3 410 94 91
3 405 406 413
3 413 406 414
3 15 13 413
3 413 13 405
3 412 404 16
3 16 404 14
3 407 400 415
3 415 400 408
3 401 409 163
3 163 409 160
3 407 415 406
3 406 415 414
3 161 107 408
3 408 107 106
3 105 110 410
3 410 110 409
3 411 412 3
3 3 412 2
3 92 411 89
3 89 411 3
3 410 91 105
3 105 91 90
3 413 414 100
3 100 414 101
3 15 413 18
3 18 413 100
3 16 17 412
3 412 17 2
3 415 408 112
3 112 408 106
3 409 110 160
3 160 110 114
3 415 112 414
3 414 112 101
